<?xml version="1.0" encoding="UTF-8" standalone="no"?>
<!-- Created with Inkscape (http://www.inkscape.org/) -->

<svg
   xmlns:dc="http://purl.org/dc/elements/1.1/"
   xmlns:cc="http://creativecommons.org/ns#"
   xmlns:rdf="http://www.w3.org/1999/02/22-rdf-syntax-ns#"
   xmlns:svg="http://www.w3.org/2000/svg"
   xmlns="http://www.w3.org/2000/svg"
   xmlns:sodipodi="http://sodipodi.sourceforge.net/DTD/sodipodi-0.dtd"
   xmlns:inkscape="http://www.inkscape.org/namespaces/inkscape"
   id="svg2"
   sodipodi:docname="dagobert83-female-user-icon.svg"
   viewBox="0 0 123.16126 123.05724"
   sodipodi:version="0.32"
   version="1.0"
   inkscape:version="0.91 r13725"
   width="123.16126"
   height="123.05724">
  <title
     id="title4180">female user dotted outline</title>
  <defs
     id="defs4" />
  <sodipodi:namedview
     id="base"
     bordercolor="#666666"
     inkscape:pageshadow="2"
     inkscape:window-y="0"
     pagecolor="#ffffff"
     inkscape:window-height="1026"
     width="128px"
     inkscape:zoom="2.8"
     inkscape:window-x="1680"
     height="128px"
     borderopacity="1.0"
     inkscape:current-layer="layer1"
     inkscape:cx="33.451408"
     inkscape:cy="55.707893"
     inkscape:window-width="1920"
     inkscape:pageopacity="0.0"
     inkscape:document-units="px"
     showgrid="false"
     fit-margin-top="1"
     fit-margin-left="0.5"
     fit-margin-right="0.5"
     fit-margin-bottom="0"
     inkscape:window-maximized="1" />
  <g
     id="layer1"
     inkscape:label="Ebene 1"
     inkscape:groupmode="layer"
     transform="translate(-2.4359369,-1.9425874)">
    <path
       inkscape:connector-curvature="0"
       d="M 7.727285,64.882349 C 16.233923,64.96445 26.0291,63.008836 27.979013,54.615087 29.883314,46.412909 28.891253,3.9606807 59.132009,2.96976 88.141241,2.0181797 95.724236,26.290035 98.21009,39.581372 106.2264,82.287888 95.690027,111.04397 34.957649,93.735359 28.070237,89.757993 23.930948,89.570984 19.244315,83.256002 c 4.127886,0.11289 6.283053,0.388843 6.898815,-3.672906 -5.484843,0.224639 -10.855656,-0.277093 -12.942405,-9.80544 10.000431,1.383184 14.59584,-2.944254 18.860562,-9.50212 -5.062932,7.957014 -11.026701,12.421288 -24.334002,4.606813 z"
       style="fill:#ffffff;fill-rule:evenodd;fill-opacity:1;stroke:#000000;stroke-opacity:1;stroke-width:1;stroke-miterlimit:4;stroke-dasharray:1,2;stroke-dashoffset:0"
       sodipodi:nodetypes="czzscccccc"
       id="path12688" />
    <path
       inkscape:connector-curvature="0"
       d="M 3.599399,118.62013 C 6.393134,110.90828 7.624658,100.59312 17.237387,95.814126 L 61.83452,82.273064 108.40437,95.125385 c 8.19876,2.943114 12.07578,14.887755 15.98701,23.923495 -2.55427,1.83246 -4.74365,4.54523 -7.78825,5.16898 l -105.683005,0 c -3.4209,-1.27144 -5.165559,-3.56116 -7.320726,-5.59773 z"
       style="fill:#ffffff;fill-rule:evenodd;stroke:#000000;stroke-width:1;fill-opacity:1;stroke-opacity:1;stroke-miterlimit:4;stroke-dasharray:1,2;stroke-dashoffset:0"
       sodipodi:nodetypes="cccccccc"
       id="path12692" />
    <path
       inkscape:connector-curvature="0"
       d="m 48.698264,72.396926 c 0.239463,5.768777 0.866628,11.093978 -1.835883,15.984725 L 53.384897,124.42311 68.345633,124.21786 79.953887,85.836501 78.93902,69.342062 48.698264,72.396926 Z"
       style="fill:#ffffff;fill-rule:evenodd;stroke:#000000;stroke-width:1;fill-opacity:1;stroke-opacity:1;stroke-miterlimit:4;stroke-dasharray:1,2;stroke-dashoffset:0"
       sodipodi:nodetypes="ccccccc"
       id="path12694" />
    <path
       inkscape:connector-curvature="0"
       d="m 38.104877,41.412694 c 0.581553,9.118979 0.832419,18.239098 2.884959,27.358078 0,0 9.282042,10.440586 14.470407,12.741712 5.176962,2.301125 6.625143,1.989823 11.51703,-0.07184 4.880484,-2.060522 16.19226,-12.094022 16.19226,-12.094022 C 88.038614,49.630836 89.703452,30.965265 68.049155,19.95909 L 52.358627,43.285066 51.925313,34.21398 47.900054,41.125338 c -2.73672,-3.312571 -7.970697,-2.212182 -9.795177,0.287356 z"
       style="fill:#ffffff;fill-rule:evenodd;stroke:#000000;stroke-width:1;fill-opacity:1;stroke-opacity:1;stroke-miterlimit:4;stroke-dasharray:1,2;stroke-dashoffset:0"
       sodipodi:nodetypes="cczzcccccc"
       id="path12696" />
    <path
       inkscape:connector-curvature="0"
       d="m 83.500272,73.109907 c -4.786543,2.275263 -10.549696,2.928738 -16.158103,1.998652 5.091951,4.009343 11.4216,5.083897 16.93517,3.439344"
       style="fill:#ffffff;fill-opacity:1;fill-rule:evenodd;stroke:#000000;stroke-width:1;stroke-miterlimit:4;stroke-dasharray:1, 2;stroke-dashoffset:0;stroke-opacity:1"
       sodipodi:nodetypes="ccc"
       id="path12698" />
  </g>
  <metadata
     id="metadata43">
    <rdf:RDF>
      <cc:Work>
        <dc:format>image/svg+xml</dc:format>
        <dc:type
           rdf:resource="http://purl.org/dc/dcmitype/StillImage" />
        <cc:license
           rdf:resource="http://creativecommons.org/publicdomain/zero/1.0/" />
        <dc:publisher>
          <cc:Agent
             rdf:about="http://openclipart.org/">
            <dc:title>Openclipart</dc:title>
          </cc:Agent>
        </dc:publisher>
        <dc:title>female user dotted outline</dc:title>
        <dc:date></dc:date>
        <dc:description />
        <dc:source></dc:source>
        <dc:creator>
          <cc:Agent>
            <dc:title>tallmike</dc:title>
          </cc:Agent>
        </dc:creator>
        <dc:subject>
          <rdf:Bag>
            <rdf:li>cartoon</rdf:li>
            <rdf:li>face</rdf:li>
            <rdf:li>faceless</rdf:li>
            <rdf:li>female</rdf:li>
            <rdf:li>girl</rdf:li>
            <rdf:li>hair</rdf:li>
            <rdf:li>icon</rdf:li>
            <rdf:li>people</rdf:li>
            <rdf:li>sign</rdf:li>
            <rdf:li>user</rdf:li>
            <rdf:li>woman</rdf:li>
            <rdf:li>outline</rdf:li>
            <rdf:li>dotted</rdf:li>
            <rdf:li>persona</rdf:li>
          </rdf:Bag>
        </dc:subject>
      </cc:Work>
      <cc:License
         rdf:about="http://creativecommons.org/publicdomain/zero/1.0/">
        <cc:permits
           rdf:resource="http://creativecommons.org/ns#Reproduction" />
        <cc:permits
           rdf:resource="http://creativecommons.org/ns#Distribution" />
        <cc:permits
           rdf:resource="http://creativecommons.org/ns#DerivativeWorks" />
      </cc:License>
    </rdf:RDF>
  </metadata>
</svg>
